<?xml version="1.0" standalone="no"?>
<!DOCTYPE svg PUBLIC "-//W3C//DTD SVG 20010904//EN"
 "http://www.w3.org/TR/2001/REC-SVG-20010904/DTD/svg10.dtd">
<svg version="1.0" xmlns="http://www.w3.org/2000/svg"
 width="236.000000pt" height="253.000000pt" viewBox="0 0 236.000000 253.000000"
 preserveAspectRatio="xMidYMid meet">

<g transform="translate(0.000000,253.000000) scale(0.100000,-0.100000)"
fill="#000000" stroke="none">
<path d="M447 2414 c-16 -16 -5 -32 23 -36 21 -3 30 0 30 10 0 8 -6 12 -15 8
-8 -3 -18 2 -23 10 -4 8 -11 11 -15 8z"/>
<path d="M394 2372 c-5 -5 -28 -15 -51 -22 -24 -7 -43 -16 -43 -18 0 -3 8 -14
18 -25 9 -11 11 -17 5 -13 -9 5 -11 2 -7 -8 4 -11 12 -13 29 -6 26 10 41 -2
30 -21 -4 -6 1 -17 11 -24 22 -17 38 -19 29 -5 -3 5 8 16 25 25 18 9 28 21 24
27 -4 6 -3 8 4 4 12 -7 62 13 62 26 0 4 -12 8 -27 8 -18 0 -36 11 -54 33 -21
23 -28 27 -29 15 0 -22 -21 -120 -25 -116 -8 10 -14 59 -6 54 5 -3 12 10 16
30 7 39 4 48 -11 36z m48 -72 c3 -17 1 -33 -4 -36 -4 -3 -8 11 -8 30 0 44 6
47 12 6z"/>
<path d="M540 2345 c-10 -12 -10 -15 3 -15 19 0 31 16 18 24 -5 3 -14 -1 -21
-9z"/>
<path d="M276 2331 c-3 -5 1 -14 8 -20 12 -10 13 -8 9 8 -6 23 -9 25 -17 12z"/>
<path d="M470 2205 c13 -14 24 -25 26 -25 1 0 1 11 0 25 -1 19 -6 25 -25 25
l-24 0 23 -25z"/>
<path d="M321 2204 c0 -11 3 -14 6 -6 3 7 2 16 -1 19 -3 4 -6 -2 -5 -13z"/>
<path d="M427 2194 c-4 -4 8 -14 25 -24 24 -12 33 -25 36 -48 2 -19 -1 -32 -8
-32 -6 0 -8 -5 -4 -11 12 -20 25 7 22 47 -2 30 -9 42 -34 56 -17 10 -34 15
-37 12z"/>
<path d="M426 2131 c-3 -5 3 -11 14 -14 13 -3 20 0 20 9 0 15 -26 19 -34 5z"/>
<path d="M371 2104 c0 -11 3 -14 6 -6 3 7 2 16 -1 19 -3 4 -6 -2 -5 -13z"/>
<path d="M395 2090 c3 -5 8 -10 11 -10 2 0 4 5 4 10 0 6 -5 10 -11 10 -5 0 -7
-4 -4 -10z"/>
<path d="M450 2060 c41 -23 50 -24 50 -8 0 6 -3 8 -7 5 -3 -4 -13 -1 -21 5 -7
7 -24 13 -35 15 -16 2 -12 -3 13 -17z"/>
<path d="M495 2010 c3 -5 8 -10 11 -10 2 0 4 5 4 10 0 6 -5 10 -11 10 -5 0 -7
-4 -4 -10z"/>
<path d="M415 1993 c6 -6 24 -15 40 -21 17 -5 39 -13 49 -18 13 -5 17 -4 12 4
-4 6 -21 15 -39 21 -18 5 -41 12 -52 16 -13 5 -17 5 -10 -2z"/>
<path d="M370 1939 c0 -5 5 -7 10 -4 6 3 10 8 10 11 0 2 -4 4 -10 4 -5 0 -10
-5 -10 -11z"/>
<path d="M451 1934 c0 -11 3 -14 6 -6 3 7 2 16 -1 19 -3 4 -6 -2 -5 -13z"/>
<path d="M305 1920 c-3 -6 1 -7 9 -4 18 7 21 14 7 14 -6 0 -13 -4 -16 -10z"/>
<path d="M502 1910 c0 -14 2 -19 5 -12 2 6 2 18 0 25 -3 6 -5 1 -5 -13z"/>
<path d="M451 1864 c0 -11 3 -14 6 -6 3 7 2 16 -1 19 -3 4 -6 -2 -5 -13z"/>
<path d="M390 1800 c0 -5 5 -10 11 -10 5 0 7 5 4 10 -3 6 -8 10 -11 10 -2 0
-4 -4 -4 -10z"/>
<path d="M445 1790 c-3 -5 -1 -10 4 -10 6 0 11 5 11 10 0 6 -2 10 -4 10 -3 0
-8 -4 -11 -10z"/>
<path d="M445 1720 c3 -5 8 -10 11 -10 2 0 4 5 4 10 0 6 -5 10 -11 10 -5 0 -7
-4 -4 -10z"/>
<path d="M512 1685 c0 -16 2 -22 5 -12 2 9 2 23 0 30 -3 6 -5 -1 -5 -18z"/>
<path d="M476 1647 c3 -10 9 -15 12 -12 3 3 0 11 -7 18 -10 9 -11 8 -5 -6z"/>
<path d="M358 1643 c7 -3 16 -2 19 1 4 3 -2 6 -13 5 -11 0 -14 -3 -6 -6z"/>
<path d="M273 1585 c7 -7 18 -10 24 -8 21 8 14 21 -11 21 -19 0 -22 -3 -13
-13z"/>
<path d="M316 1535 c-3 -8 -16 -20 -28 -25 -23 -10 -23 -10 2 -8 49 2 60 -1
53 -19 -5 -13 -3 -13 13 3 19 19 19 19 -6 25 -17 5 -19 7 -7 8 10 0 17 7 15
14 -7 18 -35 20 -42 2z"/>
<path d="M341 1424 c0 -11 3 -14 6 -6 3 7 2 16 -1 19 -3 4 -6 -2 -5 -13z"/>
<path d="M306 1261 c-24 -9 -13 -17 36 -26 29 -6 39 -4 44 8 6 16 20 17 44 2
13 -8 13 -7 1 9 -16 19 -57 17 -53 -3 2 -9 -3 -11 -13 -7 -9 3 -24 6 -33 7
-14 0 -13 2 3 9 25 11 -2 12 -29 1z"/>
<path d="M460 1260 c-8 -5 -12 -12 -9 -15 4 -3 12 1 19 10 14 17 11 19 -10 5z"/>
<path d="M401 1233 c-1 -17 16 -25 25 -12 4 7 3 9 -4 5 -5 -3 -13 0 -15 6 -4
9 -6 10 -6 1z"/>
<path d="M477 1211 c-4 -17 -3 -21 5 -13 5 5 8 16 6 23 -3 8 -7 3 -11 -10z"/>
<path d="M341 1204 c0 -11 3 -14 6 -6 3 7 2 16 -1 19 -3 4 -6 -2 -5 -13z"/>
<path d="M500 1200 c0 -13 38 -32 51 -25 14 10 -9 35 -32 35 -11 0 -19 -4 -19
-10z"/>
<path d="M436 1187 c3 -10 9 -15 12 -12 3 3 0 11 -7 18 -10 9 -11 8 -5 -6z"/>
<path d="M444 1149 c-20 -6 -41 -24 -58 -49 -15 -23 -31 -38 -35 -35 -5 2 -8
-3 -7 -13 1 -12 -9 -19 -34 -23 -34 -6 -32 -7 22 -13 7 0 14 -10 16 -21 3 -16
1 -18 -9 -8 -20 20 -39 -4 -39 -51 0 -22 -7 -68 -14 -101 -8 -33 -13 -61 -11
-63 11 -11 42 100 47 171 3 32 9 34 31 9 23 -25 22 -53 0 -46 -16 5 -17 4 -2
-8 13 -11 15 -23 9 -60 -5 -36 -3 -48 7 -53 23 -8 28 -6 15 7 -7 7 -12 23 -11
38 l1 25 8 -25 c7 -21 8 -18 10 20 3 65 0 93 -13 109 -7 8 -7 12 -2 9 7 -4 10
11 9 40 -3 70 17 110 58 117 18 3 43 3 56 1 12 -3 22 0 22 6 0 5 7 8 15 4 8
-3 15 0 15 5 0 7 -11 9 -25 7 -14 -3 -28 -1 -31 3 -6 10 -8 10 -50 -2z"/>
<path d="M568 1133 c6 -2 18 -2 25 0 6 3 1 5 -13 5 -14 0 -19 -2 -12 -5z"/>
<path d="M322 1070 c0 -19 2 -27 5 -17 2 9 2 25 0 35 -3 9 -5 1 -5 -18z"/>
<path d="M425 1000 c3 -5 8 -10 11 -10 2 0 4 5 4 10 0 6 -5 10 -11 10 -5 0 -7
-4 -4 -10z"/>
<path d="M1277 969 c-19 -11 -19 -50 -1 -234 l5 -50 -26 33 c-15 17 -34 32
-43 31 -12 0 -11 -3 6 -9 12 -5 22 -12 22 -16 0 -3 -7 -3 -16 0 -8 3 -13 2
-11 -2 12 -19 17 -180 7 -207 -6 -16 -7 -31 -2 -34 13 -9 25 -141 12 -141 -5
0 -10 7 -10 15 0 8 -9 15 -20 15 -13 0 -20 -7 -20 -20 0 -15 7 -20 29 -20 20
0 34 -8 45 -25 9 -14 12 -25 6 -25 -5 0 -10 5 -10 10 0 6 -10 8 -22 5 -13 -3
-203 -7 -423 -9 -220 -3 -443 -8 -495 -12 -89 -6 -97 -9 -133 -40 -20 -19 -33
-34 -27 -34 5 0 10 -18 10 -40 l0 -40 -40 0 c-22 0 -40 -4 -40 -10 0 -6 38
-10 95 -10 l95 0 0 -29 c0 -48 17 -44 23 5 2 25 7 47 10 50 2 3 31 -4 62 -15
32 -11 62 -18 66 -15 5 3 6 -3 2 -12 -5 -13 -3 -15 7 -9 10 6 12 4 7 -9 -5
-14 -3 -17 8 -12 8 3 15 1 15 -5 0 -6 5 -7 11 -3 6 3 15 0 20 -7 6 -9 9 -10 9
-2 0 8 11 10 34 6 30 -5 35 -1 55 30 11 19 22 47 22 63 2 23 3 21 8 -11 5 -30
10 -40 24 -39 13 2 16 -3 12 -17 -5 -15 -3 -17 11 -12 14 5 16 3 11 -11 -5
-13 -3 -17 7 -13 8 3 17 1 20 -6 5 -9 7 -9 12 1 5 10 9 10 20 1 11 -9 14 -8
14 5 0 9 5 16 11 16 5 0 7 -5 4 -10 -3 -6 -1 -10 4 -10 6 0 11 5 11 11 0 5 4
8 9 4 16 -9 58 16 70 41 8 17 19 24 40 24 16 0 33 -5 36 -10 3 -6 19 -17 35
-25 42 -22 105 -10 143 27 28 26 35 28 114 28 54 0 82 4 78 10 -3 6 -1 10 4
10 6 0 11 -4 11 -10 0 -6 31 -7 80 -3 57 4 80 3 80 -6 0 -6 4 -11 8 -11 5 0 9
23 11 51 2 44 15 99 23 99 2 0 2 -34 0 -75 -2 -42 0 -75 5 -74 20 3 34 -2 28
-11 -9 -15 53 -71 95 -86 40 -14 79 -9 94 11 6 8 21 16 33 18 12 2 26 7 30 11
5 4 1 6 -7 4 -9 -2 -14 3 -11 12 1 8 4 25 5 37 0 13 5 23 10 23 5 0 3 7 -4 15
-7 9 -10 18 -7 22 4 3 2 12 -4 20 -6 7 -7 13 -2 13 18 0 44 -41 38 -61 -4 -11
-2 -19 4 -19 6 0 11 9 11 20 0 29 34 26 48 -5 6 -13 24 -31 40 -39 34 -18 113
-16 136 3 11 9 16 10 17 2 1 -6 2 -17 3 -23 0 -7 10 -14 21 -16 22 -3 21 -6
27 98 3 47 6 55 23 55 18 0 20 -8 23 -63 2 -44 7 -65 17 -69 8 -3 13 -9 10
-14 -3 -4 8 -3 25 2 35 13 39 20 8 16 -19 -2 -23 5 -29 38 -5 22 -8 58 -7 80
0 27 3 17 9 -30 13 -99 18 -103 15 -12 -3 83 -11 102 -30 76 -10 -15 -13 -15
-21 5 -6 11 -7 37 -4 56 5 30 7 31 8 8 1 -26 13 -41 37 -44 6 -1 9 8 7 20 -2
11 -8 57 -12 101 l-8 80 -3 -60 -4 -60 -5 75 c-3 41 -3 79 2 84 4 6 6 30 5 55
l-1 46 -7 -50 -7 -50 -1 48 c-1 30 -6 47 -14 47 -10 0 -12 -31 -9 -131 3 -146
3 -149 -62 -149 l-37 0 16 -27 17 -28 -28 28 -27 29 -109 -8 -109 -7 -41 37
c-43 39 -44 39 -163 22 -18 -2 -18 38 0 51 10 7 13 13 8 13 -6 0 -23 -14 -40
-32 -16 -18 -21 -26 -11 -19 25 20 22 -4 -5 -40 -72 -94 -69 -92 -146 -94 -70
-3 -72 -2 -72 21 0 13 6 24 13 24 6 0 42 3 80 6 53 5 67 3 67 -7 0 -11 2 -11
10 1 19 29 9 32 -92 28 -74 -2 -102 0 -105 10 -3 7 4 12 16 12 12 0 21 5 21
11 0 6 -9 8 -21 4 -19 -6 -21 -4 -16 14 3 11 1 21 -4 21 -13 0 -11 -94 3 -108
9 -9 9 -12 0 -12 -19 0 -34 40 -30 81 3 29 0 39 -14 42 -13 4 -18 -3 -21 -27
-2 -17 -2 2 0 43 3 41 1 76 -5 80 -5 3 -12 56 -16 116 -5 95 -4 107 7 86 8
-12 12 -35 11 -50 -2 -14 -1 -18 2 -8 3 9 12 17 21 17 12 0 14 7 10 33 -4 17
-9 66 -12 107 -3 41 -8 95 -11 119 -4 27 -2 41 4 37 6 -3 12 1 16 9 6 18 6 18
-17 4z m31 -694 c17 -20 17 -20 -5 -1 -18 15 -23 28 -21 65 l1 46 4 -45 c3
-25 12 -54 21 -65z m912 71 c0 -3 -4 -8 -10 -11 -5 -3 -10 -1 -10 4 0 6 5 11
10 11 6 0 10 -2 10 -4z m-92 -59 c-1 -18 2 -39 7 -47 6 -13 5 -13 -8 0 -10 10
-13 26 -10 48 7 42 14 41 11 -1z m89 1 c-3 -7 -5 -2 -5 12 0 14 2 19 5 13 2
-7 2 -19 0 -25z m-209 15 c-10 -2 -28 -2 -40 0 -13 2 -5 4 17 4 22 1 32 -1 23
-4z m-1047 -140 c6 -6 29 -14 52 -16 40 -3 40 -4 -9 -5 -60 -2 -65 4 -62 81
l2 52 3 -50 c3 -27 9 -55 14 -62z m789 82 c7 -9 8 -15 2 -15 -5 0 -12 7 -16
15 -3 8 -4 15 -2 15 2 0 9 -7 16 -15z m-189 -22 c-12 -20 -14 -14 -5 12 4 9 9
14 11 11 3 -2 0 -13 -6 -23z m-381 7 c0 -5 -9 -10 -21 -10 -11 0 -17 5 -14 10
3 6 13 10 21 10 8 0 14 -4 14 -10z m67 -27 c-3 -10 -5 -4 -5 12 0 17 2 24 5
18 2 -7 2 -21 0 -30z m166 30 c-18 -2 -48 -2 -65 0 -18 2 -4 4 32 4 36 0 50
-2 33 -4z m82 -38 c0 -46 -8 -58 -19 -29 -5 13 -20 15 -81 12 -62 -2 -75 0
-75 12 0 12 12 14 62 12 48 -3 63 -1 70 12 5 9 13 14 18 11 5 -3 11 -1 15 5 9
15 10 13 10 -35z m558 38 c-7 -2 -19 -2 -25 0 -7 3 -2 5 12 5 14 0 19 -2 13
-5z m-1288 -13 c3 -5 1 -10 -4 -10 -6 0 -11 5 -11 10 0 6 2 10 4 10 3 0 8 -4
11 -10z m202 -22 c-3 -7 -5 -2 -5 12 0 14 2 19 5 13 2 -7 2 -19 0 -25z m116
25 c-13 -2 -35 -2 -50 0 -16 2 -5 4 22 4 28 0 40 -2 28 -4z m581 -4 c-52 -15
-69 -77 -33 -123 16 -20 17 -24 4 -20 -21 9 -35 37 -35 74 0 37 39 80 72 79
19 -1 18 -2 -8 -10z m324 4 c-15 -2 -42 -2 -60 0 -18 2 -6 4 27 4 33 0 48 -2
33 -4z m-1543 -12 c3 -5 0 -13 -6 -17 -7 -4 -9 -3 -5 4 4 6 -5 12 -21 15 l-28
4 27 2 c15 0 29 -3 33 -8z m1682 -43 c-2 -13 -4 -5 -4 17 -1 22 1 32 4 23 2
-10 2 -28 0 -40z m-1880 17 c-7 -14 -19 -25 -27 -26 -11 0 -12 -2 -2 -6 7 -3
22 3 32 12 19 17 19 16 17 -14 -2 -29 -5 -31 -38 -31 -32 0 -37 3 -41 28 -7
49 1 62 37 62 32 0 33 -1 22 -25z m870 5 c15 -18 16 -30 4 -30 -5 0 -12 8 -14
18 -4 13 -5 11 -6 -5 -1 -21 4 -23 46 -23 60 0 49 -11 -14 -15 l-49 -2 4 31
c4 32 3 32 -32 28 -23 -3 -36 0 -36 8 0 17 82 9 97 -10z m-817 -20 c0 -16 -4
-30 -8 -30 -5 0 -7 13 -4 30 2 17 6 30 8 30 2 0 4 -13 4 -30z m880 10 c0 -13
-7 -20 -20 -20 -13 0 -20 7 -20 20 0 13 7 20 20 20 13 0 20 -7 20 -20z m-780
-12 c10 -6 6 -7 -15 -3 -16 4 -34 11 -40 17 -12 12 31 1 55 -14z m82 13 c-7
-4 -17 -21 -22 -37 -8 -28 -8 -28 -9 -3 -1 26 15 49 34 49 5 0 4 -4 -3 -9z
m37 -5 c8 -10 8 -16 -1 -24 -10 -8 -13 -4 -13 14 0 28 -1 28 14 10z m83 -14
c5 -21 -10 -83 -24 -100 -17 -20 -20 -7 -5 22 10 18 12 39 7 65 -5 30 -4 38 6
34 7 -2 14 -12 16 -21z m100 16 c-22 -22 -14 -75 14 -97 31 -24 19 -29 -14 -5
-16 11 -22 25 -22 53 0 32 14 61 29 61 3 0 0 -5 -7 -12z m51 -25 c-17 -13 -16
-14 5 -8 13 4 22 2 22 -4 0 -6 -9 -11 -19 -11 -11 0 -21 -3 -24 -7 -2 -5 -2
-2 -1 5 2 6 -1 12 -6 12 -6 0 -10 5 -10 11 0 5 5 7 10 4 9 -6 15 8 11 29 -1 5
5 4 14 -4 14 -11 14 -14 -2 -27z m84 -42 l-6 -46 15 29 c9 15 14 37 11 47 -3
10 -1 19 4 19 14 0 11 -37 -5 -68 -10 -20 -23 -28 -46 -30 -18 -1 -29 2 -25 7
3 6 12 8 20 4 10 -3 15 2 16 16 3 54 -1 91 -8 73 -2 -6 -9 -9 -14 -6 -6 3 -2
12 8 19 26 19 37 -5 30 -64z m411 64 c3 -3 -7 -5 -21 -5 -15 0 -27 4 -27 9 0
10 38 7 48 -4z m37 -3 c-3 -3 -11 0 -18 7 -9 10 -8 11 6 5 10 -3 15 -9 12 -12z
m285 -2 c0 -11 -4 -20 -9 -20 -5 0 -7 9 -4 20 3 11 7 20 9 20 2 0 4 -9 4 -20z
m224 5 c-4 -8 -8 -15 -10 -15 -2 0 -4 7 -4 15 0 8 4 15 10 15 5 0 7 -7 4 -15z
m-1134 -5 c0 -5 -5 -10 -11 -10 -5 0 -7 5 -4 10 3 6 8 10 11 10 2 0 4 -4 4
-10z m1060 0 c0 -5 -7 -10 -16 -10 -8 0 -12 5 -9 10 3 6 10 10 16 10 5 0 9 -4
9 -10z m359 -36 c-7 -8 -22 -20 -33 -26 -16 -8 -15 -5 7 17 15 15 28 35 28 44
1 13 2 12 6 -2 3 -10 -1 -25 -8 -33z m-419 26 c0 -5 -2 -10 -4 -10 -3 0 -8 5
-11 10 -3 6 -1 10 4 10 6 0 11 -4 11 -10z m24 -21 c-3 -5 -9 -7 -14 -4 -4 3
-11 -2 -14 -11 -3 -8 -11 -12 -17 -8 -8 5 -4 13 12 25 23 17 45 16 33 -2z
m-1279 -10 c7 -7 0 -8 -20 -3 -16 3 -34 11 -40 17 -7 6 0 7 20 3 17 -4 35 -12
40 -17z m135 11 c0 -5 -5 -10 -11 -10 -5 0 -7 5 -4 10 3 6 8 10 11 10 2 0 4
-4 4 -10z m-18 -52 c-8 -8 -15 -8 -27 2 -8 7 -15 17 -15 23 0 5 9 2 20 -8 20
-19 28 -9 10 13 -5 7 -2 5 7 -3 13 -11 14 -18 5 -27z m203 12 l20 -25 -22 19
c-13 11 -23 24 -23 29 0 6 1 8 3 6 1 -2 11 -15 22 -29z m997 18 c-9 -9 -15 -9
-24 0 -9 9 -7 12 12 12 19 0 21 -3 12 -12z m-957 -8 c3 -5 1 -10 -4 -10 -6 0
-11 5 -11 10 0 6 2 10 4 10 3 0 8 -4 11 -10z m925 -16 c0 -8 -4 -12 -10 -9 -5
3 -10 13 -10 21 0 8 5 12 10 9 6 -3 10 -13 10 -21z m94 -20 c3 -8 2 -13 -3
-10 -5 3 -14 -1 -22 -10 -7 -8 -21 -20 -32 -26 -11 -6 -5 5 14 25 19 20 35 36
35 36 1 1 5 -6 8 -15z m-1234 -14 c0 -5 -4 -10 -10 -10 -5 0 -10 5 -10 10 0 6
5 10 10 10 6 0 10 -4 10 -10z"/>
<path d="M430 924 c0 -8 5 -12 10 -9 6 3 10 10 10 16 0 5 -4 9 -10 9 -5 0 -10
-7 -10 -16z"/>
<path d="M230 855 c0 -8 6 -15 13 -15 8 0 7 -4 -3 -11 -12 -8 -12 -10 4 -7 27
4 31 25 7 38 -17 9 -21 8 -21 -5z"/>
<path d="M1315 792 c-13 -9 -18 -35 -5 -27 5 3 12 -11 16 -35 4 -27 14 -45 28
-52 19 -10 19 -9 8 5 -7 8 -15 34 -17 58 -4 45 -14 62 -30 51z"/>
<path d="M143 739 c2 -41 6 -53 20 -55 21 -3 24 34 2 42 -10 4 -13 14 -9 29 3
13 1 26 -4 29 -7 4 -10 -13 -9 -45z"/>
<path d="M333 773 c10 -3 17 -14 16 -26 0 -21 -1 -21 -9 -2 -8 18 -9 17 -9 -7
-1 -20 -5 -26 -15 -22 -19 7 -32 -57 -18 -82 9 -16 13 -13 27 24 10 23 23 42
31 42 14 0 18 11 15 43 -1 9 4 17 11 17 9 0 9 3 -2 10 -8 5 -26 9 -40 9 -17
-1 -19 -3 -7 -6z"/>
<path d="M507 763 c-3 -5 -1 -17 4 -28 7 -17 8 -17 8 8 1 27 -4 34 -12 20z"/>
<path d="M1461 753 c-7 -8 -10 -17 -7 -20 9 -9 29 13 25 25 -2 6 -10 3 -18 -5z"/>
<path d="M1175 712 c-11 -2 -24 -9 -30 -14 -7 -7 -2 -8 15 -4 l25 7 -25 -15
c-24 -15 -24 -15 -3 -16 16 0 20 -5 16 -19 -3 -11 -13 -21 -24 -24 -10 -3 -16
-1 -13 4 3 5 -1 16 -10 24 -8 8 -13 25 -11 36 3 15 0 19 -11 15 -9 -3 -32 -6
-52 -6 -27 0 -33 -3 -22 -9 8 -6 18 -7 22 -5 4 3 8 1 8 -3 0 -5 -9 -14 -21
-21 -18 -12 -21 -11 -26 7 -3 12 -10 21 -17 22 -6 0 -18 2 -26 3 -8 2 -24 0
-35 -4 -19 -7 -19 -7 3 -19 14 -7 22 -8 22 -1 0 15 30 12 31 -2 0 -7 2 -40 2
-73 l2 -60 33 3 c29 3 32 1 31 -25 -1 -18 -3 -21 -6 -10 -4 16 -14 18 -67 15
-50 -2 -62 -6 -62 -19 0 -20 24 -19 37 2 7 11 9 8 9 -10 0 -13 -3 -21 -6 -18
-4 3 -15 2 -26 -4 -15 -8 -17 -13 -7 -25 17 -20 39 -17 39 6 0 11 5 20 10 20
14 0 12 -37 -2 -43 -10 -3 -10 -9 -2 -24 10 -16 9 -19 -11 -19 -13 0 -21 5
-19 11 4 12 -13 42 -20 35 -2 -3 -2 -18 1 -34 l6 -28 106 6 c58 3 121 5 140 6
l33 0 -5 58 c-4 31 -6 67 -7 80 0 23 -2 23 -67 16 -57 -6 -64 -5 -53 8 9 10
30 13 69 10 l56 -4 -3 83 c-1 46 -3 83 -5 84 -1 1 -11 -1 -22 -3z m-79 -48
c-3 -8 -2 -14 2 -14 4 0 8 -11 8 -25 1 -13 9 -32 18 -41 10 -9 14 -19 11 -22
-3 -4 -10 0 -15 8 -7 11 -10 12 -10 2 0 -7 -4 -10 -10 -7 -5 3 -10 16 -10 29
0 12 -6 28 -12 35 -10 11 -10 12 -1 7 9 -5 12 1 9 23 -2 17 1 28 6 25 5 -3 7
-12 4 -20z m-55 -30 c-16 -12 -20 -19 -12 -27 15 -15 14 -27 -1 -27 -8 0 -14
15 -16 36 -1 19 2 33 6 30 4 -2 14 -1 22 4 24 15 25 0 1 -16z m19 -44 c0 -40
-19 -55 -36 -28 -5 8 -2 9 9 5 13 -5 17 -1 17 18 0 14 -6 25 -12 25 -9 0 -8 4
2 10 8 5 16 10 18 10 1 0 2 -18 2 -40z m63 -87 c-3 -7 0 -13 6 -13 6 0 11 5
11 12 0 6 2 9 5 6 3 -3 3 -12 -1 -21 -6 -17 -37 -18 -51 -2 -5 4 -2 5 5 1 14
-9 16 6 2 20 -6 6 -3 10 9 10 11 0 17 -5 14 -13z m-90 -25 c-5 -7 -8 -23 -7
-35 0 -12 -2 -21 -5 -19 -4 3 -6 22 -5 43 3 50 2 49 16 35 7 -7 8 -16 1 -24z
m-38 12 c3 -5 1 -10 -4 -10 -6 0 -11 5 -11 10 0 6 2 10 4 10 3 0 8 -4 11 -10z
m-35 -36 c0 -8 -19 -13 -24 -6 -3 5 1 9 9 9 8 0 15 -2 15 -3z m203 -9 c-3 -9
-8 -14 -10 -11 -3 3 -2 9 2 15 9 16 15 13 8 -4z m-49 -13 c3 -5 -1 -9 -9 -9
-8 0 -12 4 -9 9 3 4 7 8 9 8 2 0 6 -4 9 -8z"/>
<path d="M1310 685 c0 -14 4 -25 9 -25 4 0 6 11 3 25 -2 14 -6 25 -8 25 -2 0
-4 -11 -4 -25z"/>
<path d="M1447 693 c-15 -2 -25 -9 -21 -14 3 -5 10 -7 15 -4 5 4 9 -6 10 -22
0 -31 17 -78 18 -53 2 23 22 92 26 88 3 -2 -2 -28 -10 -58 -11 -42 -12 -56 -2
-63 8 -6 6 -7 -6 -3 -10 3 -30 6 -43 6 -23 0 -24 3 -24 57 0 52 -1 56 -16 42
-12 -13 -14 -27 -7 -75 l8 -59 68 0 c37 0 67 3 67 8 0 4 6 7 14 7 22 0 24 20
6 79 -11 34 -25 58 -36 62 -20 8 -24 8 -67 2z"/>
<path d="M1570 693 c0 -20 33 -109 46 -124 14 -16 73 -17 97 -2 7 4 36 6 65 5
l52 -3 -27 55 c-16 34 -35 57 -47 60 -47 12 -186 19 -186 9z m190 -78 c0 -5
-5 -3 -10 5 -5 8 -10 20 -10 25 0 6 5 3 10 -5 5 -8 10 -19 10 -25z"/>
<path d="M475 612 c0 -62 -3 -77 -16 -80 -9 -1 -20 8 -27 23 -13 27 -8 50 9
40 5 -4 9 1 9 11 0 14 -2 14 -16 3 -14 -11 -18 -11 -29 4 -16 23 -25 22 -25
-3 0 -11 7 -20 15 -20 8 0 15 -7 15 -15 0 -13 -4 -13 -22 -3 -31 17 -39 30
-32 48 13 31 12 60 -1 60 -15 0 -47 -84 -39 -103 3 -8 -4 -13 -15 -13 -16 0
-18 4 -10 18 14 26 0 22 -27 -7 -18 -20 -20 -25 -7 -25 11 0 14 -7 11 -25 -4
-18 -1 -25 11 -25 14 -1 14 -2 1 -13 -11 -9 -14 -25 -9 -67 l6 -55 1 53 c1 29
8 59 15 66 14 15 65 26 69 16 2 -4 17 -10 35 -13 26 -5 33 -3 38 13 3 10 16
20 28 22 17 2 23 11 27 38 3 19 10 36 16 37 6 1 9 -10 6 -29 -3 -21 -1 -29 7
-24 19 12 13 64 -9 76 -11 6 -20 18 -20 28 0 9 -4 22 -8 29 -4 6 -7 -23 -7
-65z m-133 -31 c1 -20 10 -37 21 -43 10 -5 16 -12 13 -15 -3 -3 -12 0 -21 7
-12 10 -15 10 -15 -1 0 -11 -2 -11 -9 -1 -6 10 -10 10 -21 -3 -17 -21 -26 -19
-27 8 0 12 1 16 4 10 3 -10 10 -8 27 4 17 13 21 24 18 47 -3 17 -2 29 1 25 4
-3 8 -20 9 -38z"/>
<path d="M267 629 c-8 -28 -3 -34 11 -16 6 7 7 19 3 26 -6 9 -10 6 -14 -10z"/>
<path d="M1331 618 c2 -32 2 -32 6 -5 3 20 9 27 19 23 8 -3 14 -1 14 4 0 6 -9
10 -20 10 -16 0 -20 -6 -19 -32z"/>
<path d="M411 624 c0 -11 3 -14 6 -6 3 7 2 16 -1 19 -3 4 -6 -2 -5 -13z"/>
<path d="M2070 576 c0 -40 -4 -66 -11 -66 -5 0 -7 -5 -3 -11 9 -15 11 -108 2
-102 -5 2 -8 22 -8 43 0 42 -8 70 -20 70 -4 0 -5 -12 -2 -26 3 -19 1 -25 -7
-20 -6 4 -11 16 -11 26 0 10 -4 22 -10 25 -11 7 -14 -93 -4 -143 6 -28 8 -29
21 -16 13 12 13 17 1 32 -12 15 -11 16 5 3 10 -8 16 -19 14 -25 -6 -19 16 -32
45 -28 l29 4 -3 89 c-2 49 0 89 5 89 6 0 13 -134 8 -162 0 -5 6 -8 14 -8 12 0
14 13 11 73 -4 81 -12 107 -32 107 -9 0 -14 17 -16 52 -2 30 -8 53 -15 56 -10
3 -13 -14 -13 -62z"/>
<path d="M224 622 c3 -5 0 -12 -6 -14 -8 -3 -4 -9 10 -17 14 -7 22 -8 22 -1 0
5 -5 10 -11 10 -5 0 -8 4 -4 9 3 5 0 13 -6 17 -7 4 -9 3 -5 -4z"/>
<path d="M2111 584 c0 -11 3 -14 6 -6 3 7 2 16 -1 19 -3 4 -6 -2 -5 -13z"/>
<path d="M576 545 c3 -14 2 -25 -2 -24 -5 1 -17 1 -27 0 -15 -1 -16 -3 -5 -15
8 -9 17 -11 23 -5 5 5 20 10 35 10 16 1 19 3 8 6 -10 2 -18 13 -18 23 0 10 -5
22 -10 25 -7 4 -8 -3 -4 -20z"/>
<path d="M650 562 c0 -5 9 -12 21 -15 12 -3 18 -10 14 -16 -8 -14 1 -14 26 -1
15 9 19 7 19 -7 0 -15 1 -15 14 2 8 12 20 16 35 12 11 -3 21 -1 21 3 0 5 -26
12 -57 15 -32 4 -66 9 -75 11 -10 3 -18 1 -18 -4z"/>
<path d="M923 550 c1 -20 27 -29 27 -10 0 6 -5 10 -11 10 -5 0 -7 5 -4 10 3 6
2 10 -4 10 -5 0 -9 -9 -8 -20z"/>
<path d="M1261 544 c0 -11 3 -14 6 -6 3 7 2 16 -1 19 -3 4 -6 -2 -5 -13z"/>
<path d="M965 540 c-3 -5 -1 -10 4 -10 6 0 11 5 11 10 0 6 -2 10 -4 10 -3 0
-8 -4 -11 -10z"/>
<path d="M635 520 c-3 -5 3 -10 15 -10 12 0 18 5 15 10 -3 6 -10 10 -15 10 -5
0 -12 -4 -15 -10z"/>
<path d="M728 501 c-28 -9 -49 -23 -52 -34 -2 -10 -10 -17 -18 -16 -28 3 -37
-1 -31 -17 4 -12 14 -14 40 -9 20 3 40 2 47 -5 11 -8 15 -1 20 30 5 35 10 41
36 46 39 8 46 6 42 -14 -2 -12 5 -18 19 -19 12 -1 34 -14 49 -28 19 -18 27
-21 27 -11 0 8 -4 13 -8 11 -3 -3 -12 2 -19 10 -10 13 -9 15 9 15 12 0 21 6
21 15 0 9 -10 15 -26 15 -21 0 -25 -4 -19 -17 3 -11 -8 -4 -27 15 -38 35 -43
36 -110 13z m2 -31 c0 -5 -7 -10 -15 -10 -8 0 -15 5 -15 10 0 6 7 10 15 10 8
0 15 -4 15 -10z"/>
<path d="M1850 493 c0 -4 5 -15 10 -23 8 -13 10 -13 10 2 0 9 -4 20 -10 23 -5
3 -10 3 -10 -2z"/>
<path d="M434 460 c-9 -14 -13 -17 -10 -6 5 13 2 17 -9 12 -8 -3 -15 0 -15 7
0 9 -2 9 -8 -1 -5 -7 -7 -31 -6 -55 5 -71 7 -74 14 -17 l7 55 1 -58 c1 -32 -3
-68 -9 -79 l-11 -21 188 7 c103 4 190 9 193 11 2 3 -8 5 -23 5 -20 0 -27 4
-24 17 4 23 28 29 28 7 0 -14 3 -15 12 -6 7 7 33 12 59 12 40 0 46 -3 43 -17
-5 -17 6 -18 138 -15 79 1 149 5 156 7 14 5 17 45 2 45 -5 0 -10 -8 -11 -17 0
-11 -3 -13 -6 -5 -3 8 -30 12 -83 12 -66 0 -79 -3 -83 -17 -4 -17 -5 -17 -6 0
-1 21 -41 24 -41 2 0 -8 -5 -15 -11 -15 -6 0 -9 7 -5 15 4 12 -3 15 -29 15
-19 0 -35 4 -35 9 0 6 -13 6 -32 0 -18 -5 -50 -7 -70 -3 -33 5 -37 3 -40 -18
-2 -18 -10 -24 -37 -26 -18 -2 -39 2 -45 9 -8 9 -6 10 12 6 18 -4 22 -2 20 11
-3 14 -19 17 -96 20 -50 1 -92 6 -92 10 1 25 20 35 60 29 34 -4 40 -3 36 10
-3 8 -6 17 -6 19 0 2 -7 4 -16 4 -8 0 -13 -4 -10 -9 4 -5 -2 -8 -11 -7 -10 2
-18 12 -18 22 0 48 -46 57 -71 14z m56 -21 c0 -18 -2 -19 -15 -9 -15 12 -12
30 6 30 5 0 9 -10 9 -21z m-43 -29 c-2 -36 -3 -36 -18 -9 -8 15 -8 19 0 15 6
-4 11 0 11 8 0 9 2 16 5 16 2 0 3 -13 2 -30z m-6 -57 c1 -16 2 -15 6 1 4 14 7
16 13 6 9 -14 3 -40 -9 -40 -4 0 -13 11 -19 25 -7 15 -8 25 -2 25 6 0 11 -8
11 -17z m169 -24 c0 -6 -29 -9 -65 -8 -36 1 -65 6 -65 12 0 6 17 7 40 4 22 -3
38 -2 36 2 -3 4 8 5 25 3 16 -2 29 -8 29 -13z"/>
<path d="M597 484 c-3 -3 -22 -6 -41 -6 -28 0 -36 -4 -36 -18 0 -16 4 -17 32
-9 18 5 45 9 60 9 18 0 28 5 28 15 0 15 -31 21 -43 9z"/>
<path d="M1692 470 c0 -14 2 -19 5 -12 2 6 2 18 0 25 -3 6 -5 1 -5 -13z"/>
<path d="M1610 460 c-14 -10 -22 -21 -19 -24 2 -3 18 6 34 19 35 29 22 33 -15
5z"/>
<path d="M1830 471 c0 -5 5 -13 10 -16 6 -3 10 -2 10 4 0 5 -4 13 -10 16 -5 3
-10 2 -10 -4z"/>
<path d="M583 443 c-20 -8 -15 -23 7 -23 11 0 20 7 20 15 0 15 -6 17 -27 8z"/>
<path d="M750 431 c0 -57 36 -70 42 -16 4 31 1 35 -19 35 -16 0 -23 -6 -23
-19z"/>
<path d="M1375 420 c3 -5 8 -10 11 -10 2 0 4 5 4 10 0 6 -5 10 -11 10 -5 0 -7
-4 -4 -10z"/>
<path d="M1898 423 c-25 -3 -38 -9 -38 -19 0 -8 4 -13 9 -10 18 11 22 -28 5
-41 -14 -10 -15 -13 -3 -13 8 0 20 5 27 12 9 9 12 9 12 0 0 -7 9 -12 20 -12
11 0 20 5 20 11 0 5 -4 8 -9 5 -14 -9 -23 44 -10 60 6 8 10 13 8 12 -2 -1 -21
-3 -41 -5z"/>
<path d="M204 408 c-4 -7 -14 -24 -22 -38 -14 -24 -13 -24 3 -5 20 24 37 55
31 55 -3 0 -8 -6 -12 -12z"/>
<path d="M697 400 c10 -11 24 -20 32 -20 11 0 9 6 -7 20 -12 11 -26 20 -31 20
-6 0 -3 -9 6 -20z"/>
<path d="M271 328 c-1 -32 2 -35 19 -31 11 3 20 13 19 22 0 10 -2 11 -6 4 -8
-22 -21 -14 -26 15 -3 22 -4 21 -6 -10z"/>
<path d="M318 343 c7 -3 16 -2 19 1 4 3 -2 6 -13 5 -11 0 -14 -3 -6 -6z"/>
<path d="M1822 100 c-7 -11 -8 -20 -3 -20 9 0 24 30 18 36 -1 2 -8 -6 -15 -16z"/>
<path d="M2140 91 c0 -6 6 -11 14 -11 8 0 16 -5 18 -11 2 -7 9 -5 17 5 11 14
11 16 -2 16 -8 0 -22 3 -31 6 -9 3 -16 1 -16 -5z"/>
<path d="M610 68 c-12 -22 -12 -22 6 -6 10 10 15 20 12 24 -4 3 -12 -5 -18
-18z"/>
<path d="M2068 63 c7 -3 16 -2 19 1 4 3 -2 6 -13 5 -11 0 -14 -3 -6 -6z"/>
<path d="M2113 53 c9 -2 23 -2 30 0 6 3 -1 5 -18 5 -16 0 -22 -2 -12 -5z"/>
</g>
</svg>
